<svg data-v-423bf9ae="" xmlns="http://www.w3.org/2000/svg" viewBox="0 0 NaN NaN" class="iconAbove"><!----><!----><!----><g data-v-423bf9ae="" id="01f3f0e2-b664-4069-9bd5-01b84dcfa5b9" fill="black" transform="matrix(Infinity,0,0,Infinity,0,0)"><path d=""></path></g><!----><g data-v-423bf9ae="" id="5a62ca9b-3dfb-4c7d-abcb-5b25cbf62e9d" transform="matrix(1,0,0,1,0,-5)" stroke="none" fill="black"><path d="M84 5H16C9.9 5 5 9.6 5 15.3V67c0 5.7 4.9 10.3 11 10.3h7.2v15.3c0 .9.6 1.8 1.5 2.2.4.2.7.2 1.1.2.6 0 1.2-.2 1.7-.5l22.7-17.2H84c6.1 0 11-4.6 11-10.3V15.3C95 9.6 90.1 5 84 5zm5.9 61.9c0 3-2.6 5.4-5.8 5.4H49.2c-.6 0-1.2.2-1.7.5L28.4 87.3V74.7c0-1.3-1.2-2.4-2.6-2.4H16c-3.2 0-5.8-2.4-5.8-5.4V15.5c0-3 2.6-5.4 5.8-5.4h68.2c3.2 0 5.8 2.4 5.8 5.4v51.4z"></path><path d="M35.7 31c2.1 0 3.7.6 4.8 1.9.6.7 1.1 1.8 1.5 3.2h6.1c-.1-1.8-.8-3.6-2-5.4-2.2-3.2-5.8-4.8-10.7-4.8-3.6 0-6.6 1.2-9 3.6-2.7 2.8-4.1 6.7-4.1 11.8 0 4.7 1.2 8.4 3.6 11.1 2.4 2.7 5.6 4 9.8 4 3.4 0 6.1-1 8.3-3 2.1-2 3.5-4.6 4-7.8h-6c-.4 1.5-.9 2.6-1.5 3.4-1.1 1.4-2.7 2.1-4.8 2.1-2 0-3.7-.8-5-2.4-1.3-1.6-2-4.1-2-7.4 0-3.3.6-5.8 1.9-7.6 1.2-1.9 2.9-2.7 5.1-2.7zM70.2 44.2c0 2-.2 3.5-.7 4.4-.7 1.6-2.3 2.5-4.8 2.5s-4.1-.8-4.8-2.5c-.5-.9-.7-2.4-.7-4.4V26.3H53v17.9c0 3.1.5 5.5 1.4 7.2 1.8 3.2 5.2 4.8 10.3 4.8 5 0 8.5-1.6 10.3-4.8 1-1.7 1.4-4.1 1.4-7.2V26.3h-6.2v17.9z"></path></g><!----></svg>